<svg width="722" height="614" viewBox="0 0 722 614" fill="none" xmlns="http://www.w3.org/2000/svg">
<path d="M1 613V1H721V613H1ZM345.17 297.85C344.5 297.43 344.08 297.22 343.71 296.94C342.407 295.873 340.837 295.181 339.17 294.94C338.614 294.862 338.047 294.921 337.518 295.111C336.99 295.301 336.516 295.617 336.137 296.032C335.758 296.446 335.485 296.947 335.343 297.49C335.201 298.033 335.193 298.603 335.32 299.15C336.527 304.437 337.743 309.727 338.97 315.02C339.157 316.219 339.811 317.296 340.789 318.015C341.767 318.734 342.989 319.038 344.19 318.86C346.5 318.69 348.8 318.34 351.11 318.27C355.99 318.11 360.86 318.04 365.74 318.02C366.938 317.968 368.137 318.127 369.28 318.49C372.974 319.751 376.588 321.237 380.1 322.94C383.1 324.52 386.04 324.67 388.77 323.14C393.297 320.716 397.253 317.351 400.37 313.27C405.226 306.543 408.035 298.556 408.46 290.27C409 283.18 409.22 276.06 409.4 268.95C409.546 257.916 408.524 246.898 406.35 236.08C403.83 222.75 399.27 210.08 394.44 197.43C393.839 195.869 393.025 194.398 392.02 193.06C390.07 190.5 387.02 190.58 385.17 193.16C382.23 197.23 379.3 201.32 376.46 205.46C373.07 210.39 369.9 215.46 366.4 220.35C360.598 228.311 356.307 237.269 353.74 246.78C350.06 260.45 350.09 274.27 352.11 288.16C352.3 289.48 352.48 290.8 352.7 292.37C347.91 291.03 346.82 294.65 345.17 297.85ZM326.73 306.06H326.83C326.83 304.86 326.83 303.66 326.83 302.46C326.6 295.08 325.6 287.91 322.77 280.96C319.319 272.427 314.506 264.511 308.52 257.52C303.16 251.24 297.04 245.73 290.89 240.25C280.537 231.183 269.427 223.02 257.68 215.85C256.296 214.886 254.622 214.427 252.94 214.55C252.458 214.541 251.978 214.632 251.533 214.817C251.087 215.002 250.685 215.278 250.351 215.627C250.018 215.975 249.76 216.389 249.595 216.842C249.429 217.296 249.359 217.778 249.39 218.26C249.39 219.05 249.29 219.84 249.23 220.63C248.9 225.42 248.4 230.2 248.28 234.99C248.05 244.99 250.06 254.7 251.83 264.44C253.944 275.19 257.258 285.669 261.71 295.68C264.22 301.56 266.87 307.37 271.19 312.25C274.451 315.762 277.942 319.052 281.64 322.1C288.2 327.78 295.84 331.56 303.54 335.29C305.8 336.39 309.41 335.91 311.09 333.51C312.683 331.283 314.835 329.517 317.33 328.39C318.41 327.88 319.33 327.12 320.45 326.61C321.733 325.967 323.072 325.442 324.45 325.04C326.71 324.41 327.6 323.43 327.5 321.17C327.26 316.11 326.98 311.08 326.73 306.06V306.06ZM150.89 307.76C150.452 307.733 150.013 307.792 149.598 307.935C149.183 308.078 148.8 308.301 148.471 308.591C148.143 308.882 147.874 309.235 147.682 309.629C147.49 310.024 147.377 310.452 147.35 310.89C147.384 311.847 147.468 312.802 147.6 313.75C147.745 314.934 147.775 316.13 147.69 317.32C146.985 323.464 144.701 329.321 141.06 334.32C136.5 340.39 131.9 346.46 126.87 352.13C121.7 357.801 117.054 363.93 112.99 370.44C110.366 374.566 108.611 379.183 107.83 384.01C107.44 386.75 109.07 388.47 111.83 388.26C113.595 388.187 115.291 387.561 116.68 386.47C118.29 385.15 120 383.95 121.58 382.61C123.44 381.078 125.66 380.046 128.03 379.61C138.23 377.48 148.51 377.5 158.84 377.99C162.915 378.194 166.907 379.214 170.58 380.99C170.861 381.138 171.152 381.269 171.45 381.38C172.08 381.654 172.779 381.727 173.452 381.589C174.124 381.451 174.738 381.109 175.21 380.61C175.701 380.13 176.028 379.508 176.147 378.831C176.265 378.155 176.168 377.458 175.87 376.84C175.5 375.955 175.059 375.103 174.55 374.29C172.259 370.435 170.494 366.292 169.3 361.97C168.067 357.998 167.414 353.869 167.36 349.71C167.36 345.08 167.07 340.44 166.62 335.83C165.62 325.67 161.18 317.06 154.42 309.54C153.497 308.539 152.243 307.907 150.89 307.76V307.76ZM312.83 483.7C312.98 484.7 313.22 486.7 313.62 488.63C314.1 490.99 315.3 492.75 317.91 493.18C318.527 493.35 319.122 493.596 319.68 493.91C328.084 497.459 336.961 499.763 346.03 500.75C352.61 501.59 359.28 501.32 365.81 502.7C368.81 503.33 370.48 501.82 370.2 498.77C369.974 497.205 369.599 495.664 369.08 494.17C368.08 490.8 367 487.46 365.96 484.1C365.44 482.43 364.86 480.77 364.4 479.1C362.32 471.55 360.29 463.99 358.21 456.44C356.51 450.28 354.76 444.13 353.04 437.98C352.91 437.355 352.716 436.745 352.46 436.16C350.68 432.83 347.86 431.38 344.46 435C342 437.62 339.73 440.42 337.46 443.17C333.56 447.83 329.64 452.48 325.83 457.22C322.99 460.76 320.14 464.34 317.6 468.1C314.422 472.675 312.754 478.13 312.83 483.7ZM248.09 383C251.69 383.22 253.69 380.93 252.93 377.48C252.688 376.387 252.353 375.316 251.93 374.28C250.52 370.89 249.13 367.48 247.57 364.16C245.22 359.16 242.74 354.25 240.3 349.31C239.935 348.608 239.51 347.939 239.03 347.31C236.92 344.48 234.59 344.01 231.55 345.78L231.14 346.03C216.466 354.659 201.319 362.458 185.77 369.39C184.837 369.685 184.057 370.334 183.597 371.198C183.137 372.062 183.034 373.071 183.31 374.01C184.65 379.54 186.31 384.95 189.62 389.7C190.311 390.764 191.221 391.667 192.29 392.35C197.29 395.27 202.41 398.15 207.57 400.86C211.28 402.81 215.4 403.61 219.5 404.28C220.148 404.423 220.819 404.428 221.468 404.293C222.118 404.159 222.732 403.889 223.27 403.501C223.808 403.113 224.258 402.616 224.591 402.042C224.924 401.468 225.131 400.83 225.2 400.17C225.43 398.92 225.43 397.63 225.59 396.36C226.23 391.08 228.3 386.66 233.27 384.15C235.929 382.806 238.911 382.231 241.88 382.49C243.96 382.63 246.03 382.82 248.09 383ZM261.75 351.65C263.627 351.331 265.474 350.853 267.27 350.22C270.94 348.67 274.48 346.79 278.07 345.07C280.61 343.85 281.18 342.17 279.88 339.61C278.42 336.76 276.88 333.95 275.51 331.07C273.788 327.362 271.505 323.942 268.74 320.93C264.69 316.63 260.4 312.55 256.17 308.42C255.399 307.724 254.542 307.129 253.62 306.65C252.712 306.051 251.659 305.706 250.572 305.652C249.485 305.597 248.404 305.835 247.44 306.34C245.88 307.15 244.44 308.08 242.8 308.82C241.679 309.408 240.47 309.81 239.22 310.01C228.783 311.033 218.251 310.477 207.98 308.36C206.564 308.107 205.129 307.973 203.69 307.96C203.002 307.911 202.316 308.083 201.733 308.452C201.15 308.821 200.7 309.367 200.45 310.01C200.158 310.632 200.066 311.329 200.185 312.006C200.305 312.683 200.632 313.306 201.12 313.79C201.72 314.43 202.41 314.99 203.05 315.59C206.88 319.21 210.83 322.71 214.51 326.48C217.35 329.39 219.9 332.59 222.51 335.75C223.461 336.944 224.845 337.713 226.36 337.89C228.816 338.323 231.343 338.078 233.67 337.18C234.93 336.67 236.19 336.18 237.43 335.6C239.32 334.76 240.09 334.87 241.35 336.48C242.833 338.266 244.212 340.136 245.48 342.08C246.894 344.313 248.707 346.266 250.83 347.84C253.974 350.236 257.798 351.571 261.75 351.65ZM628.39 214.2C628.39 208.26 628.25 207.86 624.84 204.15C624.68 203.97 624.51 203.8 624.35 203.63C620.034 198.898 615.166 194.701 609.85 191.13C604.94 187.85 599.85 184.89 594.8 181.77C593.08 180.71 591.55 180.57 590.36 181.53C588.92 182.7 588.88 184.14 589.36 185.86C590.754 190.704 591.504 195.71 591.59 200.75C591.679 209.942 592.431 219.116 593.84 228.2C594.53 232.65 595.14 237.05 597.84 240.83C600.44 244.44 603.5 247.42 608.2 247.83C610.653 248.063 613.123 248.037 615.57 247.75C620.414 247.179 625.148 245.899 629.62 243.95C633.45 242.23 634.91 238.53 633.35 234.38C632.54 232.21 631.75 230.03 630.95 227.86C629.41 223.463 628.547 218.857 628.39 214.2ZM478.33 258.87C481.33 259.25 481.33 259.25 484.16 257.55C486.38 256.21 487.16 254.67 486.46 252.12C485.875 249.633 485.137 247.185 484.25 244.79C479.825 232.958 474.388 221.529 468 210.63C465.32 206.19 462.41 201.88 459.39 197.63C457.46 194.94 454.39 195.18 452.39 197.88C452.07 198.33 451.79 198.88 451.39 199.25C446.328 205.453 442.177 212.346 439.06 219.72C437.2 223.96 436.44 228.25 438.06 232.72C438.4 233.72 438.58 234.72 438.86 235.72C439.851 239.45 441.83 242.843 444.59 245.54C445.22 246.15 445.73 246.88 446.3 247.54L455.3 257.83C455.739 258.352 456.3 258.757 456.933 259.01C457.566 259.263 458.252 259.356 458.93 259.28C461.4 259.09 463.87 258.86 466.35 258.81C470.35 258.81 474.34 258.87 478.33 258.87ZM92.27 343.07H91.86C92.17 347.45 92.33 351.84 92.86 356.2C93.1088 358.179 93.7225 360.095 94.67 361.85C96.22 364.72 98.09 367.42 99.92 370.13C100.177 370.513 100.514 370.836 100.909 371.074C101.304 371.313 101.747 371.462 102.206 371.51C102.665 371.559 103.128 371.506 103.565 371.356C104.001 371.205 104.399 370.961 104.73 370.64C105.412 369.97 105.965 369.18 106.36 368.31C107.143 366.735 107.841 365.12 108.45 363.47C110.551 357.679 113.592 352.273 117.45 347.47C122.45 341.26 127.66 335.18 132.9 329.15C135.074 326.791 136.618 323.923 137.39 320.81C138.101 317.281 138.36 313.675 138.16 310.08C138.02 304.67 136.16 299.58 135.24 294.32C134.78 291.68 131.6 290.96 129.56 292.78C128.07 294.11 126.56 295.4 125.02 296.67C120.58 300.33 116.02 303.87 111.69 307.67C104.143 314.026 97.9354 321.821 93.43 330.6C92.6446 332.17 92.2436 333.904 92.26 335.66C92.28 338.11 92.27 340.59 92.27 343.07ZM225.77 303.07C227.82 302.86 231.96 303.23 235.85 301.18C240.68 298.64 240.95 297.01 239.03 292.94C238.709 292.214 238.281 291.539 237.76 290.94C235.873 288.779 233.853 286.738 231.71 284.83C226.78 280.77 221.66 276.94 216.64 272.98C210.863 268.433 205.547 263.328 200.77 257.74C197.802 254.499 194.665 251.418 191.37 248.51C190.559 247.741 189.635 247.1 188.63 246.61C188.095 246.328 187.495 246.195 186.892 246.225C186.288 246.255 185.704 246.447 185.2 246.78C184.696 247.113 184.29 247.576 184.027 248.12C183.763 248.663 183.65 249.268 183.7 249.87C183.7 250.27 183.83 250.66 183.86 251.06C184.06 253.52 184.43 255.98 184.39 258.44C184.12 266.032 183.014 273.571 181.09 280.92C180.09 285.22 181.02 289.13 181.6 293.2C181.767 293.732 182.039 294.225 182.4 294.65C184.14 297.25 186.77 298.53 189.6 299.51C193.51 300.87 197.6 300.98 201.66 301.15C204.054 301.159 206.44 301.417 208.78 301.92C214.335 303.278 220.081 303.677 225.77 303.1V303.07ZM359.17 325.87C356.86 326.01 354.55 326.13 352.23 326.29C343.361 326.812 334.617 328.638 326.28 331.71C325.073 332.096 323.985 332.784 323.12 333.71C320.68 336.77 318.35 339.92 316.19 343.18C314.03 346.44 314.35 348.18 316.69 351.18C319.202 354.325 322.571 356.677 326.39 357.95C331.612 359.746 336.687 361.943 341.57 364.52C344.511 366.03 347.842 366.609 351.12 366.18C352.32 366.07 353.5 365.85 354.69 365.76C361.082 365.158 367.258 363.128 372.76 359.82C373.987 359.207 374.95 358.17 375.47 356.9C376.624 354.103 377.573 351.225 378.31 348.29C378.936 344.753 379.327 341.179 379.48 337.59C379.483 336.572 379.129 335.585 378.48 334.8C377.279 333.518 375.975 332.338 374.58 331.27C370.07 327.59 365.25 324.96 359.17 325.9V325.87ZM682.17 247.24C681.9 246.52 681.523 245.846 681.05 245.24C678.63 242.7 676.17 240.24 673.62 237.79C667 231.53 660.28 225.38 652.53 220.49C649.53 218.62 646.72 216.55 643.84 214.54C643.341 214.133 642.735 213.878 642.095 213.805C641.455 213.732 640.808 213.845 640.23 214.13C639.64 214.393 639.144 214.83 638.808 215.382C638.472 215.934 638.312 216.575 638.35 217.22C638.359 217.859 638.45 218.494 638.62 219.11C639.05 220.82 639.47 222.52 639.99 224.2C641.51 229.2 643.08 234.11 644.64 239.06C645.64 242.22 645.29 244.97 642.64 247.3C639.261 250.374 635.22 252.629 630.83 253.89C627.365 254.869 623.78 255.353 620.18 255.33C617.12 255.28 615.76 257.05 616.5 259.97C617.42 263.6 618.3 267.26 619.41 270.84C621.13 276.4 623.02 281.92 624.87 287.45C625.097 288.182 625.55 288.824 626.164 289.282C626.779 289.741 627.523 289.992 628.29 290C629.049 290.089 629.816 289.934 630.48 289.556C631.144 289.178 631.669 288.598 631.98 287.9C633.56 285.13 635.22 282.39 636.91 279.68C641.842 271.625 647.957 264.357 655.05 258.12C656.157 257.079 657.406 256.2 658.76 255.51C664.91 252.67 671.3 250.81 678.2 251.34C680.36 251.57 682.11 249.93 682.13 247.27L682.17 247.24ZM584.35 214.85H584.53C584.1 209.2 583.74 203.54 583.22 197.85C582.67 191.85 581.96 185.78 581.36 179.74C581.308 179.143 581.134 178.564 580.849 178.037C580.563 177.511 580.172 177.049 579.7 176.68C577.726 175.189 575.501 174.065 573.13 173.36C569.13 171.95 565.76 173.04 562.58 175.36C558.29 178.55 554.05 181.83 549.74 184.99C543.493 189.57 537.213 194.107 530.9 198.6C529.54 199.6 528.71 200.69 528.99 202.4C529.27 204.11 530.48 204.67 531.9 205.23C535.09 206.48 538.29 207.75 541.38 209.23C552.12 214.34 562.82 219.56 573.56 224.67C575.294 225.483 577.107 226.117 578.97 226.56C581.51 227.17 583.38 225.94 583.97 223.41C584.18 222.474 584.291 221.519 584.3 220.56C584.35 218.71 584.31 216.79 584.31 214.88L584.35 214.85ZM525.15 314.31C525.31 315.51 525.36 316.14 525.47 316.77C526.57 323.22 527.69 329.67 528.78 336.13C529.21 338.65 529.57 341.18 530.05 343.69C530.158 344.37 530.486 344.997 530.985 345.472C531.484 345.947 532.125 346.245 532.81 346.32C533.484 346.444 534.181 346.353 534.8 346.058C535.42 345.764 535.931 345.282 536.26 344.68C536.523 344.187 536.75 343.676 536.94 343.15C538.06 340.68 539.02 338.15 540.32 335.75C547.17 323.17 558.44 315.83 571.07 310.21C574.34 308.76 575.14 307.47 573.85 304.21C573.68 303.76 573.45 303.34 573.24 302.9C569.897 295.462 565.77 288.403 560.93 281.84C560.4 281.14 560.02 280.34 559.51 279.62C557.51 276.81 555.59 273.99 553.58 271.22C552.3 269.47 550.48 269.4 548.58 269.99C547.782 270.269 547.071 270.752 546.517 271.391C545.963 272.029 545.585 272.801 545.42 273.63C544.49 276.84 543.68 280.09 542.67 283.28C539.33 293.9 534.95 303.93 526.53 311.69C525.898 312.479 525.417 313.377 525.11 314.34L525.15 314.31ZM167.83 245.71L167.76 245.52C161.3 246.52 154.76 247.15 148.38 248.52C137.2 250.95 126.49 254.98 115.88 259.22C106.332 262.926 97.3249 267.897 89.1 274C88.378 274.498 87.7256 275.09 87.16 275.76C85.55 277.91 86.33 280.34 88.81 281.38C90.2654 282.014 91.6843 282.728 93.06 283.52C98.3933 286.48 103.68 289.48 108.92 292.52C109.895 293.162 111.047 293.481 112.214 293.433C113.38 293.384 114.501 292.97 115.42 292.25C117.63 290.67 119.8 289.05 121.98 287.41C130.85 280.74 139.6 273.89 148.64 267.41C154.99 262.88 161.26 258.17 168.4 254.8C169.859 253.968 171.151 252.873 172.21 251.57C172.579 251.172 172.842 250.687 172.974 250.16C173.106 249.633 173.103 249.082 172.965 248.557C172.828 248.031 172.56 247.549 172.187 247.155C171.814 246.76 171.347 246.466 170.83 246.3C169.835 246.026 168.818 245.839 167.79 245.74L167.83 245.71ZM541.04 237.31C541.2 233.31 539.62 231.69 536.81 232.25C526.81 234.25 516.94 236.39 507.44 240.04C505.299 240.912 503.246 241.986 501.31 243.25C499.15 244.62 498.62 246.72 499.56 249.1C501.03 252.82 502.42 256.57 504.05 260.21C508.79 270.783 513.59 281.327 518.45 291.84C519.209 293.422 520.141 294.914 521.23 296.29C523.71 299.5 527.87 299.18 529.94 295.65C530.797 294.304 531.499 292.865 532.03 291.36C533.12 287.77 534.17 284.16 534.91 280.49C536.348 274.267 537.294 267.941 537.74 261.57C537.985 255.582 538.727 249.625 539.96 243.76C540.43 241.37 540.74 238.91 541 237.34L541.04 237.31ZM82.72 319.12C86.33 319.31 88.85 318.93 90.6 317.65C95.7261 313.818 100.317 309.319 104.25 304.27C105.71 302.45 105.25 300.4 103.25 299.14C102.17 298.46 101 297.93 99.88 297.33C93.2 293.71 86.52 290.12 79.88 286.47C77.77 285.32 75.72 285.26 73.88 286.76C66.3188 292.556 59.8367 299.637 54.73 307.68C52.36 311.54 50.45 315.68 48.4 319.75C43.09 330.22 40.2 341.52 37.16 352.75C36.9509 353.537 37.0305 354.374 37.3845 355.107C37.7385 355.841 38.3435 356.424 39.09 356.75C39.8186 357.102 40.65 357.177 41.4298 356.961C42.2096 356.746 42.8848 356.255 43.33 355.58C47.6256 350.017 51.4679 344.118 54.82 337.94C56.2696 335.083 58.0375 332.4 60.09 329.94C66.02 323.2 73.25 318.72 82.72 319.12ZM529.96 166.85C525.73 167.06 521.5 167.21 517.28 167.49C508.425 168.044 499.653 169.533 491.11 171.93C484.4 173.82 477.9 176.27 472.28 180.59C471.799 180.868 471.38 181.241 471.048 181.686C470.716 182.131 470.478 182.64 470.35 183.18C470.01 185.36 471.08 186.94 473.41 187.6C476.64 188.5 479.94 189.2 483.09 190.32C492.106 193.565 501.343 196.162 510.73 198.09C512.751 198.635 514.905 198.365 516.73 197.34C527.34 191.09 537.59 184.34 547.65 177.2C548.798 176.344 549.78 175.287 550.55 174.08C550.858 173.632 551.057 173.119 551.132 172.58C551.206 172.042 551.153 171.494 550.977 170.979C550.801 170.465 550.507 169.999 550.118 169.619C549.73 169.239 549.258 168.955 548.74 168.79C548.284 168.648 547.82 168.531 547.35 168.44C541.64 167 535.8 166.98 529.96 166.85ZM421.52 312.65C422.642 312.197 423.72 311.642 424.74 310.99C431.204 306.421 437.266 301.309 442.86 295.71C445.983 292.503 448.765 288.981 451.16 285.2C451.916 284.173 452.389 282.966 452.532 281.698C452.674 280.431 452.48 279.149 451.97 277.98C451.76 277.47 451.57 276.98 451.33 276.43C449.69 272.88 448.16 269.27 446.33 265.81C443.91 261.13 441.33 256.53 438.71 251.97C437.11 249.21 435.27 246.59 433.56 243.9C433.324 243.433 432.98 243.03 432.557 242.722C432.134 242.415 431.644 242.212 431.127 242.131C430.611 242.05 430.082 242.093 429.585 242.256C429.089 242.419 428.638 242.698 428.27 243.07C427.685 243.613 427.183 244.24 426.78 244.93C423.656 250.124 421.216 255.701 419.52 261.52C418.23 265.73 417.32 269.89 417.93 274.43C418.63 279.64 418.68 284.94 418.93 290.21C419 292.125 418.95 294.042 418.78 295.95C418.42 300.24 417.94 304.52 417.54 308.8C417.35 311.03 418.75 312.62 421.52 312.65ZM477.06 268.78V268.69C473.24 268.92 469.41 269.14 465.59 269.39C462.81 269.57 461.46 271.94 462.47 274.54C463.71 277.73 464.8 280.98 465.95 284.2C466.209 284.744 466.262 285.363 466.098 285.943C465.935 286.522 465.566 287.023 465.06 287.35C463.754 288.405 462.512 289.537 461.34 290.74C459.91 292.13 458.63 293.68 457.12 294.99C454.76 296.99 454.51 298.43 456.38 300.87C456.67 301.25 456.98 301.62 457.27 302C461 306.89 464.77 311.75 468.44 316.68C470.58 319.55 472.75 319.68 475.04 316.97C477.33 314.26 479.84 311.62 482.24 308.97C485.67 305.17 489.24 301.47 492.49 297.56C495.88 293.511 498.83 289.113 501.29 284.44C501.905 283.235 502.108 281.862 501.87 280.53C501.17 275.04 499.04 270.07 496.53 265.23C496.077 264.391 495.481 263.636 494.77 263C493.02 261.41 491.17 261.55 489.52 263.26C488.18 264.63 486.85 266.01 485.52 267.37C485.038 267.903 484.435 268.313 483.761 268.566C483.088 268.818 482.364 268.905 481.65 268.82C480.14 268.66 478.61 268.78 477.09 268.78H477.06ZM84.06 333.61C83.85 329.07 80.95 327.37 78.06 329.14C77.06 329.76 75.91 330.19 74.87 330.78C67.61 334.94 62.19 340.96 57.73 347.91C54.8523 352.334 51.477 356.414 47.67 360.07C42.7952 364.694 38.2789 369.682 34.16 374.99C33.6033 375.667 33.1485 376.422 32.81 377.23C32.4917 377.935 32.3893 378.719 32.5156 379.482C32.642 380.246 32.9914 380.955 33.52 381.52C34.013 382.064 34.6672 382.436 35.3869 382.582C36.1066 382.728 36.8541 382.64 37.52 382.33C38.63 381.91 39.67 381.33 40.76 380.83C53.25 375.46 66.17 373.49 79.66 375.74C82.3588 376.13 84.9019 377.243 87.02 378.96C87.4474 379.319 87.9349 379.6 88.46 379.79C89.0875 380.011 89.7639 380.053 90.4141 379.913C91.0644 379.773 91.663 379.455 92.1436 378.995C92.6242 378.535 92.968 377.951 93.1368 377.308C93.3057 376.664 93.2929 375.987 93.1 375.35C92.2159 372.271 90.7866 369.375 88.88 366.8C86.79 363.67 84.59 360.63 82.54 357.48C81.9132 356.477 81.4507 355.379 81.17 354.23C79.66 348.41 80.78 342.83 82.86 337.36C83.41 335.92 83.82 334.52 84.1 333.61H84.06ZM556.52 228.61C552.44 228.52 551.14 229.61 550.78 232.61C550.58 234.19 550.42 235.78 550.3 237.38C549.887 243.193 549.493 249.01 549.12 254.83C549.06 255.504 549.159 256.183 549.409 256.812C549.659 257.44 550.053 258.002 550.56 258.45C556.293 263.91 561.983 269.41 567.63 274.95C569.27 276.56 570.63 278.47 572.22 280.14C573.197 281.168 574.28 282.089 575.45 282.89C577.05 283.98 578.58 283.67 580.04 282.4C581.847 280.683 583.097 278.465 583.63 276.03C585.63 269.117 587.57 262.197 589.45 255.27C589.9 253.66 590.21 252.01 590.53 250.36C590.714 249.578 590.628 248.756 590.284 248.03C589.941 247.303 589.361 246.714 588.64 246.36C587.68 245.791 586.761 245.156 585.89 244.46C579.337 239.071 572.08 234.6 564.32 231.17C561.773 230.162 559.169 229.307 556.52 228.61V228.61ZM288.59 476.39C288.59 478.79 288.59 481.19 288.59 483.58C288.545 484.227 288.683 484.873 288.989 485.444C289.295 486.016 289.757 486.489 290.32 486.81C292.95 488.359 295.958 489.148 299.01 489.09C301.16 488.97 303.11 488.3 304.01 486.02C304.74 484.433 305.355 482.795 305.85 481.12C306.62 477.78 307.22 474.39 307.74 471C308.74 464.11 308.74 464.08 313.74 459.11C315.758 457.165 317.372 454.84 318.49 452.27C319.237 450.681 319.522 448.913 319.31 447.17C318.089 439.014 315.378 431.153 311.31 423.98C310.501 422.421 309.568 420.929 308.52 419.52C305.8 416.05 302.81 416.52 300.95 419.52C300.664 419.904 300.407 420.308 300.18 420.73C298.688 423.902 297.379 427.158 296.26 430.48C294.54 436.54 293.26 442.71 291.72 448.83C289.523 457.849 288.471 467.108 288.59 476.39V476.39ZM173.31 327.89C173.83 332.67 174.39 339.84 175.47 346.94C176.198 350.694 177.259 354.375 178.64 357.94C179.39 360.11 180.81 360.68 183.02 360.25C184.42 359.98 185.83 359.65 187.2 359.25C194.92 356.99 202.2 353.87 208.6 348.84C211.19 346.84 212.87 344.2 210.83 340.5C209.847 338.582 208.756 336.723 207.56 334.93C204.23 330.25 200.76 325.65 197.36 321.01C193.085 315.42 188.096 310.414 182.52 306.12C181.902 305.618 181.232 305.186 180.52 304.83C179.809 304.441 178.976 304.338 178.192 304.543C177.407 304.747 176.731 305.243 176.3 305.93C175.869 306.602 175.577 307.353 175.44 308.14C174.189 314.654 173.476 321.259 173.31 327.89V327.89ZM474.02 195.89C471.65 195.89 470.19 197.23 470.02 199.25C469.987 200.436 470.377 201.595 471.12 202.52C475.306 208.564 479.827 214.37 484.66 219.91C487.21 222.91 489.61 225.98 492.29 228.83C493.471 230.24 495.037 231.275 496.798 231.808C498.558 232.341 500.435 232.349 502.2 231.83C511.34 229.55 520.59 227.74 529.78 225.67C532.5 225.05 535.18 224.28 537.85 223.45C538.517 223.267 539.1 222.86 539.5 222.297C539.901 221.734 540.095 221.05 540.05 220.36C540.072 219.72 539.897 219.089 539.548 218.553C539.199 218.016 538.694 217.6 538.1 217.36C535.94 216.36 533.76 215.36 531.54 214.49C513.66 207.55 495.54 201.23 476.95 196.59C475.87 196.25 474.78 196.02 474.02 195.85V195.89ZM367.52 394.01L370.41 395.01C371.31 395.32 372.21 395.67 373.13 395.94C374.205 396.288 375.366 396.256 376.42 395.85C377.474 395.444 378.356 394.689 378.92 393.71C379.26 393.17 379.51 392.58 379.87 392.05C381.36 389.84 381.07 387.68 379.68 385.56C378.85 384.29 378.03 383.01 377.12 381.8C376.319 380.791 375.911 379.527 375.97 378.24C376.01 376.963 375.98 375.684 375.88 374.41C375.65 370.86 373.2 369.29 369.95 370.59C369.077 370.975 368.182 371.309 367.27 371.59C364.919 372.344 362.511 372.909 360.07 373.28C354.819 373.872 349.506 373.605 344.34 372.49C339.67 371.43 338.17 372.98 338.61 377.78C338.76 379.42 338.86 381.07 338.99 382.85C337.72 382.97 336.78 383.03 335.84 383.15C334.9 383.27 333.77 383.39 332.75 383.57C330.3 384.02 329.23 385.68 329.8 388.1C329.891 388.571 330.042 389.028 330.25 389.46C330.76 390.364 330.989 391.399 330.909 392.433C330.829 393.468 330.443 394.455 329.8 395.27C329.286 396.079 328.891 396.958 328.63 397.88C328.414 398.404 328.339 398.975 328.411 399.537C328.484 400.098 328.701 400.632 329.042 401.084C329.383 401.536 329.837 401.892 330.357 402.115C330.877 402.339 331.447 402.423 332.01 402.36C333.12 402.36 334.23 402.11 335.35 402C336.47 401.89 337.35 401.83 338.3 401.76C338.768 403.214 339.319 404.639 339.95 406.03C341.34 408.7 344.04 409.03 345.95 406.71C347.4 405.01 348.75 403.22 350.15 401.48C350.89 400.56 351.66 399.67 352.29 398.92C352.473 398.899 352.657 398.899 352.84 398.92L360.24 401.73C363.73 403.04 365.24 402.28 366.24 398.73C366.73 397.27 367.07 395.73 367.52 394.01ZM521.86 340.88C521.331 335.544 520.228 330.28 518.57 325.18C517.941 323.211 517.423 321.208 517.02 319.18C515.908 311.811 513.116 304.797 508.86 298.68C507.01 296.08 503.19 295.94 501.86 299.22C501.434 300.161 500.908 301.053 500.29 301.88C498.02 305.07 495.68 308.21 493.43 311.41C490.222 316.196 486.3 320.462 481.8 324.06C480.389 325.127 479.052 326.29 477.8 327.54C476.43 328.872 475.181 330.325 474.07 331.88C473.435 332.655 473.032 333.594 472.907 334.588C472.781 335.582 472.938 336.591 473.36 337.5C473.992 338.884 475.147 339.96 476.572 340.493C477.997 341.025 479.575 340.97 480.96 340.34C484.5 338.67 488.17 337.28 491.8 335.83C494.115 334.906 496.661 334.732 499.08 335.33C505.27 336.75 510.61 339.95 515.89 343.27C517.28 344.14 518.58 344.69 520.1 343.82C520.636 343.543 521.083 343.12 521.389 342.6C521.696 342.08 521.848 341.483 521.83 340.88H521.86ZM423.11 337.41C419.76 337.36 417.85 339.02 417.18 342.13C416.72 344.23 416.28 346.33 415.88 348.44C415.05 352.83 414.29 357.23 413.44 361.62C413.258 362.353 413.244 363.119 413.4 363.858C413.555 364.598 413.877 365.293 414.34 365.89C417.22 369.62 420 373.42 422.87 377.15C423.35 377.908 424.096 378.461 424.961 378.699C425.826 378.938 426.749 378.845 427.55 378.44C428.883 377.914 430.153 377.243 431.34 376.44C434.58 374.25 437.84 372.07 440.95 369.69C446.95 365.08 452.95 360.41 458.83 355.62C461.73 353.25 461.06 350.48 457.49 349.16C454.42 348.02 451.34 346.92 448.3 345.71C441.831 342.969 435.198 340.631 428.44 338.71C426.52 338.2 424.52 337.76 423.08 337.41H423.11ZM620.11 302.05C619.2 295.97 618.16 289.53 615.66 283.4C612.04 274.53 606.83 266.57 601.8 258.51C601.458 257.866 600.913 257.352 600.25 257.048C599.586 256.745 598.841 256.668 598.13 256.83C597.456 256.962 596.838 257.295 596.357 257.786C595.877 258.278 595.557 258.903 595.44 259.58C594.27 264.06 593.2 268.58 591.96 273.03C590.72 277.48 589.52 281.97 587.96 286.32C586.85 289.46 585.14 292.16 581.1 292.42C580.572 292.469 580.065 292.651 579.626 292.947C579.187 293.244 578.829 293.646 578.586 294.118C578.343 294.589 578.223 295.113 578.235 295.643C578.248 296.173 578.394 296.691 578.66 297.15C580.09 299.9 581.66 302.63 584.21 304.57C584.73 305.003 585.35 305.3 586.013 305.434C586.676 305.568 587.362 305.536 588.01 305.34C594.038 303.706 600.337 303.321 606.52 304.21C609.6 304.64 612.6 305.57 615.65 306.15C618.19 306.64 620.02 305.03 620.04 302.05H620.11ZM398.86 461.31C398.892 460.977 398.892 460.643 398.86 460.31C397.88 452.79 396.88 445.273 395.86 437.76C395.792 437.205 395.669 436.659 395.49 436.13C393.69 430.88 389.12 431.13 386.55 433.87C385.374 435.263 384.336 436.767 383.45 438.36C382.085 440.886 380.216 443.105 377.96 444.88C375.77 446.45 373.96 448.5 371.87 450.27C369.48 452.35 368.8 454.96 369.01 458.02C369.362 462.637 370.275 467.194 371.73 471.59C373.103 475.93 374.377 480.293 375.55 484.68C376.04 486.52 376.07 488.47 376.41 490.35C376.81 492.52 377.85 493.53 379.61 493.63C381.37 493.73 382.45 492.89 383.24 490.83C384.03 488.77 384.94 486.54 385.81 484.4C387.42 480.4 390.49 477.59 393.31 474.55C396.65 470.94 399.05 466.9 398.86 461.31ZM407.44 453.07H407.61C407.53 454.74 407.47 456.42 407.37 458.07C407.2 461.07 409.01 462.8 411.97 462.23C413.064 462.017 414.119 461.64 415.1 461.11C420.469 458.084 425.348 454.26 429.57 449.77C430.044 449.337 430.404 448.794 430.619 448.189C430.833 447.584 430.896 446.935 430.8 446.3C430.531 444.264 430.082 442.257 429.46 440.3C426.04 430.98 421.09 422.39 416.41 413.69C413.88 408.98 411.21 404.34 408.61 399.69C407.99 398.57 407.47 397.39 406.78 396.32C406.375 395.664 405.751 395.174 405.019 394.936C404.286 394.698 403.493 394.727 402.78 395.02C402.075 395.28 401.474 395.762 401.066 396.393C400.659 397.024 400.467 397.771 400.52 398.52C400.52 398.83 400.68 399.14 400.72 399.45C401.57 406.18 402.95 412.84 402.79 419.67C402.7 422.95 402.71 426.23 402.79 429.5C402.87 432.77 402.97 436.05 404.79 438.74C406.536 441.515 407.471 444.722 407.49 448C407.52 449.72 407.44 451.4 407.44 453.07V453.07ZM405.29 335.89C405.419 335.681 405.567 335.484 405.73 335.3C410.35 331.73 410.59 330.3 407.46 325.41L407.34 325.2C405.99 323.2 403.81 322.78 401.97 324.29C397.33 328.09 392.75 331.96 388.14 335.8C387.571 336.246 387.121 336.825 386.83 337.486C386.539 338.147 386.415 338.87 386.47 339.59C386.47 340.31 386.55 341.03 386.54 341.75C386.45 349.1 385.69 356.28 381.11 362.47C380.542 363.166 380.205 364.021 380.146 364.917C380.087 365.813 380.308 366.706 380.78 367.47C382.52 370.47 382.88 373.78 383.52 377.07C383.895 378.86 384.539 380.583 385.43 382.18C385.979 383.051 386.824 383.694 387.81 383.99C390.048 384.574 392.314 385.041 394.6 385.39C395.434 385.561 396.301 385.405 397.023 384.954C397.745 384.504 398.267 383.794 398.48 382.97C398.576 382.349 398.764 381.745 399.04 381.18C400.38 379.36 400.32 377.77 398.84 375.99C397.36 374.21 397.92 372.4 399.68 371.12C400.879 370.33 402.021 369.458 403.1 368.51C404.99 366.71 405.1 365.43 403.68 363.21L402.31 360.99C403.61 359.89 404.82 358.99 405.91 357.93C407.69 356.22 407.78 354.58 406.28 352.63C405.28 351.37 404.28 350.15 403.22 348.81C404.68 347.2 406.12 345.71 407.44 344.12C409.15 342.07 409.12 340.64 407.44 338.58C406.76 337.68 406.05 336.82 405.29 335.89ZM392.66 401.46H392.78C392.78 401.06 392.78 400.66 392.78 400.26C392.912 399.544 392.801 398.805 392.466 398.158C392.131 397.512 391.591 396.995 390.93 396.69C390.275 396.38 389.54 396.278 388.825 396.398C388.11 396.517 387.449 396.853 386.93 397.36C386.09 398.08 385.24 398.8 384.37 399.5C380.27 402.8 376.17 406.11 372.04 409.37C371.442 409.867 370.731 410.211 369.97 410.37C367.92 410.68 365.85 410.88 363.79 410.99C363.17 410.967 362.553 411.086 361.985 411.336C361.417 411.585 360.913 411.961 360.511 412.433C360.109 412.905 359.819 413.463 359.663 414.063C359.507 414.664 359.489 415.292 359.61 415.9C360.277 420.813 360.923 425.72 361.55 430.62C361.92 433.39 362.22 436.17 362.67 438.93C363.24 442.44 365.62 443.71 368.74 441.99C370.26 441.125 371.596 439.97 372.67 438.59C375.9 434.42 378.94 430.11 382.06 425.86C384.76 422.18 383.58 422.16 388.79 423.33C392.16 424.08 394.6 422.07 394.54 418.58C394.562 418.247 394.562 417.913 394.54 417.58C394.18 414.33 393.8 411.08 393.43 407.82C393.157 405.72 392.9 403.6 392.66 401.46ZM315.52 385.87C315.66 387.18 315.71 388.21 315.9 389.22C315.98 389.777 316.202 390.304 316.544 390.75C316.887 391.197 317.34 391.547 317.858 391.767C318.375 391.987 318.941 392.07 319.501 392.008C320.06 391.945 320.594 391.739 321.05 391.41C321.904 390.829 322.558 389.997 322.92 389.03C323.393 387.436 323.669 385.791 323.74 384.13C323.738 382.844 324.105 381.584 324.798 380.501C325.491 379.418 326.481 378.557 327.65 378.02C331.74 376.02 332.59 371.5 329.41 368.24C328.399 367.226 327.239 366.372 325.97 365.71C322.15 363.71 318.12 362.14 314.43 359.96C308.68 356.56 302.55 353.67 298.17 348.3C297.633 347.688 296.902 347.279 296.099 347.14C295.297 347.002 294.471 347.143 293.76 347.54C291.68 348.74 290.09 350.3 290.05 352.98C290.05 355.05 289.75 357.12 289.61 359.19C289.54 359.905 289.54 360.625 289.61 361.34C289.98 363.96 291.04 364.93 293.68 365.14C294.76 365.23 295.85 365.28 296.91 365.35C297.63 368.5 298.23 371.35 298.97 374.24C299.257 375.371 299.973 376.345 300.966 376.958C301.959 377.57 303.151 377.771 304.29 377.52L307.6 376.9C307.6 378.63 307.6 380.14 307.6 381.64C307.51 385.13 309.32 386.77 312.81 386.33C313.58 386.23 314.35 386.07 315.52 385.87ZM292.03 374.94C291.78 372.03 290.96 371 288.15 370.39C287.375 370.195 286.586 370.057 285.79 369.98C284.995 369.946 284.23 369.664 283.604 369.172C282.977 368.681 282.521 368.005 282.3 367.24C281.12 364.36 279.86 361.51 278.5 358.72C277.24 356.15 275.9 355.49 273.06 356C270.63 356.43 268.23 357 265.82 357.6C263.41 358.2 261.19 358.82 258.82 359.34C256.07 359.96 255.03 361.83 256.08 364.52C258.573 370.907 261.083 377.297 263.61 383.69C263.947 384.579 264.438 385.401 265.06 386.12C269.19 390.79 274.69 393.12 280.51 394.7C282.87 395.36 284.26 394.55 285.29 392.29C286.82 388.95 288.4 385.63 289.75 382.21C290.69 379.86 291.26 377.37 292 374.94H292.03ZM164.63 306.86C167.07 306.86 168.35 306.11 168.74 304.25C169.56 300.35 170.35 296.43 170.86 292.48C171.53 287.26 171.8 281.99 172.47 276.77C172.815 272.874 173.721 269.048 175.16 265.41C175.468 264.795 175.581 264.1 175.483 263.419C175.384 262.738 175.08 262.103 174.61 261.6C174.125 261.043 173.467 260.665 172.742 260.527C172.016 260.389 171.265 260.499 170.61 260.84C168.866 261.641 167.167 262.536 165.52 263.52C159.35 266.91 153.707 271.182 148.77 276.2C146.738 278.434 144.822 280.77 143.03 283.2C142.472 283.852 142.177 284.689 142.203 285.547C142.229 286.405 142.574 287.223 143.17 287.84C144.712 289.763 146.44 291.528 148.33 293.11C151.509 295.512 154.47 298.189 157.18 301.11C158.769 302.79 160.491 304.339 162.33 305.74C163.028 306.223 163.793 306.6 164.6 306.86H164.63ZM464.26 333.27C464.173 332.661 464.04 332.059 463.86 331.47C463.17 329.52 462.46 327.56 461.64 325.65C459.1 319.76 455.47 314.47 452.1 309.05C451.668 308.357 450.991 307.851 450.204 307.634C449.416 307.418 448.576 307.505 447.85 307.88C446.604 308.42 445.406 309.066 444.27 309.81C440.41 312.217 436.56 314.65 432.72 317.11C430.16 318.74 427.58 320.35 425.12 322.11C422.89 323.74 422.95 326.54 425.31 327.87C429.18 330.07 432.86 332.68 437.31 333.74C439.02 334.15 440.64 334.88 442.31 335.31C447.41 336.62 452.31 338.72 457.59 339.31C461.66 339.8 464.09 337.88 464.23 333.27H464.26ZM314.06 398.83C313.453 398.721 312.828 398.763 312.241 398.951C311.653 399.14 311.121 399.469 310.69 399.91C308.99 401.8 308.27 406.71 309.51 408.91C310.453 410.578 311.481 412.197 312.59 413.76C317.71 420.87 324.23 426.94 328.17 434.96C329.34 437.34 332.67 437.43 334.55 435.47C335.563 434.447 336.499 433.351 337.35 432.19C339.902 428.786 343.19 426.003 346.97 424.05C348.29 423.31 349.64 422.62 350.97 421.88C353.47 420.48 354.11 417.59 352.55 414.82C351.2 412.4 349.55 412.11 346.71 413.76C346.427 413.905 346.156 414.072 345.9 414.26C345.243 414.789 344.484 415.179 343.67 415.404C342.857 415.629 342.006 415.686 341.17 415.57C339.58 415.44 337.99 415.25 336.42 414.97C334.133 414.593 332.017 413.521 330.36 411.9C326.29 407.96 322 404.23 317.81 400.41C316.71 399.43 315.52 398.6 314.06 398.83ZM281.61 418.78C282.001 420.335 282.506 421.859 283.12 423.34C283.471 424.008 283.981 424.579 284.604 425.004C285.227 425.429 285.945 425.696 286.695 425.779C287.444 425.863 288.203 425.762 288.905 425.485C289.607 425.208 290.23 424.763 290.72 424.19C291.251 423.582 291.704 422.91 292.07 422.19C296.3 413.78 300.43 405.33 303.43 396.37C303.704 395.707 303.785 394.98 303.665 394.272C303.545 393.565 303.228 392.906 302.75 392.37C301.405 390.788 299.979 389.276 298.48 387.84C298.1 387.453 297.631 387.165 297.114 387.001C296.597 386.838 296.047 386.804 295.514 386.903C294.98 387.001 294.48 387.23 294.055 387.568C293.631 387.905 293.296 388.342 293.08 388.84C291.55 392.09 290.08 395.35 288.67 398.66C286.78 403.21 284.94 407.8 283.23 412.42C282.575 414.509 282.034 416.632 281.61 418.78V418.78ZM425.28 398.08C424.97 396.695 424.559 395.335 424.05 394.01C422.86 391.39 421.47 388.87 420.18 386.31C418.317 382.684 416.027 379.293 413.36 376.21C413.02 375.793 412.601 375.447 412.127 375.192C411.653 374.938 411.133 374.78 410.597 374.728C410.061 374.676 409.52 374.73 409.006 374.889C408.492 375.047 408.014 375.306 407.6 375.65C405.34 377.65 405.02 380.28 406.82 382.16C407.251 382.514 407.641 382.917 407.98 383.36C410.82 388.07 414.11 392.52 415.98 397.79C416.501 399.206 417.2 400.55 418.06 401.79C418.551 402.534 419.314 403.056 420.185 403.243C421.057 403.43 421.967 403.267 422.72 402.79C424.3 401.76 424.92 400.15 425.28 398.08Z" fill="black" stroke="white" stroke-width="0.01" stroke-miterlimit="10"/>
<path d="M345.17 297.85C346.82 294.65 347.91 291.03 352.7 292.39C352.48 290.82 352.3 289.5 352.11 288.18C350.11 274.29 350.11 260.47 353.74 246.8C356.307 237.289 360.598 228.331 366.4 220.37C369.9 215.51 373.07 210.37 376.46 205.48C379.3 201.34 382.23 197.25 385.17 193.18C387.04 190.6 390.07 190.52 392.02 193.08C393.025 194.418 393.839 195.889 394.44 197.45C399.27 210.07 403.83 222.77 406.35 236.1C408.524 246.918 409.546 257.936 409.4 268.97C409.22 276.08 409 283.2 408.46 290.29C408.035 298.576 405.226 306.563 400.37 313.29C397.253 317.371 393.297 320.737 388.77 323.16C386.04 324.69 383.11 324.54 380.1 322.96C376.587 321.261 372.974 319.778 369.28 318.52C368.137 318.157 366.938 317.998 365.74 318.05C360.86 318.05 355.99 318.14 351.11 318.3C348.8 318.37 346.5 318.72 344.19 318.89C342.989 319.068 341.767 318.764 340.789 318.045C339.811 317.326 339.157 316.249 338.97 315.05C337.75 309.757 336.533 304.467 335.32 299.18C335.193 298.633 335.201 298.063 335.343 297.52C335.485 296.977 335.758 296.476 336.137 296.062C336.516 295.647 336.99 295.331 337.518 295.141C338.047 294.951 338.614 294.892 339.17 294.97C340.837 295.211 342.407 295.903 343.71 296.97C344.08 297.22 344.52 297.43 345.17 297.85Z" stroke="white" stroke-width="0.01" stroke-miterlimit="10"/>
<path d="M326.73 306.06C326.98 311.06 327.26 316.06 327.49 321.14C327.59 323.4 326.7 324.38 324.44 325.01C323.062 325.412 321.723 325.937 320.44 326.58C319.36 327.09 318.44 327.85 317.32 328.36C314.825 329.487 312.673 331.253 311.08 333.48C309.4 335.88 305.79 336.36 303.53 335.26C295.83 331.53 288.19 327.75 281.63 322.07C277.932 319.022 274.441 315.732 271.18 312.22C266.86 307.34 264.18 301.53 261.7 295.65C257.248 285.639 253.934 275.16 251.82 264.41C250.05 254.67 248.04 244.93 248.27 234.96C248.39 230.17 248.89 225.39 249.22 220.6C249.28 219.81 249.34 219.02 249.38 218.23C249.35 217.748 249.419 217.266 249.585 216.812C249.75 216.359 250.008 215.945 250.341 215.597C250.675 215.248 251.077 214.972 251.523 214.787C251.968 214.602 252.448 214.511 252.93 214.52C254.612 214.397 256.286 214.856 257.67 215.82C269.417 222.99 280.527 231.153 290.88 240.22C297.03 245.7 303.15 251.22 308.51 257.49C314.491 264.489 319.297 272.412 322.74 280.95C325.57 287.9 326.57 295.07 326.8 302.45C326.8 303.65 326.8 304.85 326.8 306.05L326.73 306.06Z" stroke="white" stroke-width="0.01" stroke-miterlimit="10"/>
<path d="M150.89 307.76C152.256 307.923 153.516 308.581 154.43 309.61C161.19 317.13 165.64 325.74 166.63 335.9C167.08 340.51 167.35 345.15 167.37 349.78C167.424 353.939 168.077 358.068 169.31 362.04C170.491 366.36 172.243 370.503 174.52 374.36C175.029 375.173 175.47 376.025 175.84 376.91C176.138 377.528 176.235 378.225 176.117 378.901C175.998 379.578 175.671 380.2 175.18 380.68C174.708 381.179 174.094 381.521 173.422 381.659C172.749 381.797 172.05 381.724 171.42 381.45C171.122 381.339 170.831 381.208 170.55 381.06C166.877 379.284 162.885 378.264 158.81 378.06C148.48 377.57 138.2 377.55 128 379.68C125.63 380.116 123.41 381.148 121.55 382.68C119.97 384.02 118.26 385.22 116.65 386.54C115.261 387.631 113.564 388.257 111.8 388.33C109.03 388.54 107.4 386.82 107.8 384.08C108.581 379.253 110.336 374.636 112.96 370.51C117.024 364 121.67 357.871 126.84 352.2C131.84 346.53 136.47 340.46 141.03 334.39C144.671 329.391 146.955 323.534 147.66 317.39C147.745 316.2 147.714 315.004 147.57 313.82C147.438 312.872 147.354 311.917 147.32 310.96C147.338 310.513 147.445 310.075 147.635 309.67C147.825 309.265 148.095 308.903 148.428 308.605C148.761 308.306 149.15 308.078 149.573 307.933C149.996 307.788 150.444 307.729 150.89 307.76V307.76Z" stroke="white" stroke-width="0.01" stroke-miterlimit="10"/>
<path d="M312.83 483.7C312.727 478.132 314.366 472.67 317.52 468.08C320.06 464.32 322.91 460.74 325.75 457.2C329.56 452.46 333.48 447.81 337.38 443.15C339.69 440.4 341.96 437.6 344.38 434.98C347.79 431.36 350.61 432.81 352.38 436.14C352.636 436.725 352.83 437.335 352.96 437.96C354.68 444.11 356.43 450.26 358.13 456.42C360.21 463.97 362.24 471.53 364.32 479.08C364.78 480.77 365.32 482.43 365.88 484.08C366.88 487.44 367.99 490.78 369 494.15C369.519 495.644 369.894 497.185 370.12 498.75C370.4 501.8 368.74 503.31 365.73 502.68C359.2 501.3 352.53 501.57 345.95 500.73C336.881 499.743 328.004 497.439 319.6 493.89C319.042 493.576 318.448 493.33 317.83 493.16C315.22 492.73 314.02 490.97 313.54 488.61C313.22 486.68 312.98 484.7 312.83 483.7Z" stroke="white" stroke-width="0.01" stroke-miterlimit="10"/>
<path d="M248.09 383C246.03 382.82 243.96 382.63 241.89 382.46C238.921 382.201 235.939 382.776 233.28 384.12C228.28 386.63 226.28 391.05 225.6 396.33C225.44 397.6 225.44 398.89 225.21 400.14C225.141 400.8 224.934 401.438 224.601 402.012C224.268 402.586 223.818 403.083 223.28 403.471C222.742 403.859 222.128 404.129 221.478 404.263C220.829 404.398 220.158 404.393 219.51 404.25C215.41 403.58 211.29 402.78 207.58 400.83C202.42 398.12 197.34 395.24 192.3 392.32C191.231 391.637 190.321 390.734 189.63 389.67C186.37 384.92 184.63 379.51 183.32 373.98C183.044 373.041 183.147 372.032 183.607 371.168C184.067 370.304 184.847 369.655 185.78 369.36C201.329 362.428 216.476 354.629 231.15 346L231.56 345.75C234.56 343.98 236.93 344.45 239.04 347.28C239.52 347.909 239.945 348.578 240.31 349.28C242.75 354.22 245.23 359.14 247.58 364.13C249.14 367.45 250.53 370.86 251.94 374.25C252.363 375.286 252.698 376.357 252.94 377.45C253.69 380.93 251.69 383.22 248.09 383Z" stroke="white" stroke-width="0.01" stroke-miterlimit="10"/>
<path d="M261.75 351.65C257.791 351.575 253.959 350.24 250.81 347.84C248.687 346.266 246.874 344.313 245.46 342.08C244.192 340.136 242.813 338.266 241.33 336.48C240.07 334.87 239.33 334.76 237.41 335.6C236.17 336.16 234.91 336.67 233.65 337.18C231.323 338.078 228.796 338.323 226.34 337.89C224.825 337.713 223.441 336.944 222.49 335.75C219.9 332.59 217.35 329.39 214.49 326.48C210.81 322.71 206.86 319.21 203.03 315.59C202.39 314.99 201.7 314.43 201.1 313.79C200.612 313.306 200.285 312.683 200.165 312.006C200.046 311.329 200.138 310.632 200.43 310.01C200.68 309.367 201.13 308.821 201.713 308.452C202.296 308.083 202.982 307.911 203.67 307.96C205.109 307.973 206.544 308.107 207.96 308.36C218.231 310.477 228.763 311.033 239.2 310.01C240.45 309.81 241.659 309.408 242.78 308.82C244.37 308.08 245.86 307.15 247.42 306.34C248.384 305.835 249.465 305.597 250.552 305.652C251.639 305.706 252.692 306.051 253.6 306.65C254.522 307.129 255.379 307.724 256.15 308.42C260.38 312.55 264.67 316.63 268.72 320.93C271.495 323.94 273.789 327.36 275.52 331.07C276.91 333.95 278.43 336.76 279.89 339.61C281.19 342.17 280.62 343.85 278.08 345.07C274.49 346.79 270.95 348.67 267.28 350.22C265.481 350.853 263.631 351.332 261.75 351.65V351.65Z" stroke="white" stroke-width="0.01" stroke-miterlimit="10"/>
<path d="M628.39 214.2C628.55 218.847 629.413 223.442 630.95 227.83C631.75 230 632.54 232.18 633.35 234.35C634.91 238.5 633.45 242.2 629.62 243.92C625.148 245.869 620.414 247.149 615.57 247.72C613.123 248.007 610.653 248.033 608.2 247.8C603.5 247.42 600.44 244.44 597.84 240.8C595.13 237.02 594.52 232.62 593.84 228.17C592.431 219.086 591.679 209.912 591.59 200.72C591.504 195.68 590.754 190.674 589.36 185.83C588.89 184.11 588.93 182.67 590.36 181.5C591.55 180.5 593.08 180.68 594.8 181.74C599.8 184.86 604.94 187.82 609.85 191.1C615.166 194.671 620.034 198.868 624.35 203.6C624.51 203.77 624.68 203.94 624.84 204.12C628.25 207.86 628.4 208.26 628.39 214.2Z" stroke="white" stroke-width="0.01" stroke-miterlimit="10"/>
<path d="M478.33 258.87C474.33 258.87 470.33 258.81 466.33 258.87C463.85 258.92 461.38 259.15 458.91 259.34C458.232 259.416 457.546 259.323 456.913 259.07C456.28 258.817 455.719 258.412 455.28 257.89L446.28 247.6C445.71 246.94 445.2 246.21 444.57 245.6C441.81 242.903 439.831 239.51 438.84 235.78C438.56 234.78 438.38 233.78 438.04 232.78C436.46 228.27 437.22 223.98 439.04 219.78C442.157 212.406 446.308 205.513 451.37 199.31C451.73 198.89 452.01 198.39 452.37 197.94C454.37 195.24 457.42 195 459.37 197.69C462.37 201.91 465.3 206.22 467.98 210.69C474.368 221.589 479.805 233.018 484.23 244.85C485.117 247.245 485.855 249.693 486.44 252.18C487.1 254.73 486.36 256.27 484.14 257.61C481.31 259.25 481.31 259.25 478.33 258.87Z" stroke="white" stroke-width="0.01" stroke-miterlimit="10"/>
<path d="M92.27 343.07C92.27 340.59 92.27 338.07 92.27 335.63C92.2536 333.874 92.6546 332.14 93.44 330.57C97.9454 321.791 104.153 313.996 111.7 307.64C116.04 303.86 120.59 300.32 125.03 296.64C126.56 295.37 128.03 294.08 129.57 292.75C131.57 290.93 134.79 291.65 135.25 294.29C136.17 299.55 138.03 304.64 138.17 310.05C138.37 313.645 138.111 317.251 137.4 320.78C136.628 323.893 135.084 326.761 132.91 329.12C127.67 335.12 122.48 341.23 117.46 347.44C113.602 352.243 110.561 357.649 108.46 363.44C107.851 365.09 107.153 366.705 106.37 368.28C105.975 369.15 105.422 369.94 104.74 370.61C104.409 370.931 104.011 371.175 103.575 371.326C103.138 371.476 102.675 371.529 102.216 371.48C101.757 371.432 101.314 371.283 100.919 371.044C100.524 370.806 100.187 370.483 99.93 370.1C98.1 367.39 96.23 364.69 94.68 361.82C93.7325 360.065 93.1188 358.149 92.87 356.17C92.36 351.81 92.2 347.42 91.87 343.04L92.27 343.07Z" stroke="white" stroke-width="0.01" stroke-miterlimit="10"/>
<path d="M225.77 303.1C220.078 303.681 214.329 303.285 208.77 301.93C206.43 301.427 204.044 301.169 201.65 301.16C197.57 300.99 193.5 300.88 189.59 299.52C186.76 298.52 184.13 297.26 182.39 294.66C182.029 294.235 181.757 293.742 181.59 293.21C181.01 289.14 180.06 285.21 181.08 280.93C183.004 273.581 184.11 266.042 184.38 258.45C184.38 255.99 184.05 253.53 183.85 251.07C183.85 250.67 183.7 250.28 183.69 249.88C183.64 249.278 183.753 248.673 184.017 248.13C184.28 247.586 184.686 247.123 185.19 246.79C185.694 246.457 186.278 246.265 186.881 246.235C187.485 246.205 188.085 246.338 188.62 246.62C189.625 247.11 190.548 247.751 191.36 248.52C194.654 251.428 197.792 254.509 200.76 257.75C205.537 263.338 210.853 268.443 216.63 272.99C221.63 276.99 226.77 280.78 231.7 284.84C233.843 286.748 235.863 288.789 237.75 290.95C238.271 291.549 238.699 292.224 239.02 292.95C240.94 297.02 240.67 298.65 235.84 301.19C231.96 303.26 227.82 302.89 225.77 303.1Z" stroke="white" stroke-width="0.01" stroke-miterlimit="10"/>
<path d="M359.17 325.9C365.25 324.96 370.07 327.59 374.53 331.25C375.925 332.318 377.229 333.498 378.43 334.78C379.079 335.565 379.433 336.552 379.43 337.57C379.277 341.159 378.886 344.733 378.26 348.27C377.523 351.205 376.574 354.083 375.42 356.88C374.9 358.15 373.937 359.187 372.71 359.8C367.208 363.108 361.032 365.138 354.64 365.74C353.45 365.83 352.27 366.05 351.07 366.16C347.792 366.589 344.461 366.01 341.52 364.5C336.633 361.96 331.558 359.8 326.34 358.04C322.521 356.767 319.152 354.415 316.64 351.27C314.3 348.27 314.05 346.38 316.14 343.27C318.23 340.16 320.63 336.86 323.07 333.8C323.935 332.874 325.023 332.186 326.23 331.8C334.567 328.728 343.311 326.902 352.18 326.38C354.52 326.16 356.86 326.04 359.17 325.9ZM327.72 344.46C327.91 345.46 328.03 346.51 328.31 347.46C328.458 348.215 328.879 348.89 329.494 349.353C330.109 349.816 330.873 350.036 331.64 349.97C332.448 350.008 333.245 349.765 333.894 349.281C334.543 348.798 335.004 348.105 335.2 347.32C335.456 346.477 335.512 345.586 335.363 344.718C335.213 343.85 334.863 343.029 334.34 342.32C333.66 341.41 333.04 340.49 331.81 340.32C329.71 339.98 327.72 341.21 327.72 344.46ZM368.96 339.13C368.767 338.107 368.483 337.102 368.11 336.13C367.763 335.452 367.207 334.902 366.525 334.562C365.844 334.222 365.071 334.109 364.32 334.24C363.623 334.4 362.994 334.776 362.523 335.315C362.052 335.854 361.764 336.527 361.7 337.24C361.446 338.824 361.661 340.447 362.32 341.91C362.564 342.476 362.964 342.961 363.474 343.307C363.984 343.653 364.583 343.845 365.199 343.862C365.815 343.879 366.423 343.719 366.951 343.402C367.479 343.084 367.906 342.622 368.18 342.07C368.513 341.111 368.774 340.128 368.96 339.13V339.13Z" stroke="white" stroke-width="0.01" stroke-miterlimit="10"/>
<path d="M682.13 247.27C682.13 249.93 680.36 251.57 678.13 251.4C671.23 250.87 664.84 252.73 658.69 255.57C657.336 256.26 656.087 257.139 654.98 258.18C647.887 264.417 641.772 271.685 636.84 279.74C635.15 282.45 633.49 285.19 631.91 287.96C631.599 288.658 631.074 289.238 630.41 289.616C629.746 289.994 628.979 290.149 628.22 290.06C627.453 290.052 626.709 289.801 626.094 289.342C625.48 288.884 625.027 288.242 624.8 287.51C622.95 281.98 621.06 276.46 619.34 270.9C618.23 267.32 617.34 263.66 616.43 260.03C615.69 257.11 617.05 255.34 620.11 255.39C623.71 255.413 627.295 254.929 630.76 253.95C635.15 252.689 639.191 250.434 642.57 247.36C645.25 245.03 645.57 242.28 644.57 239.12C643.01 234.17 641.44 229.22 639.92 224.26C639.4 222.58 638.98 220.88 638.55 219.17C638.38 218.554 638.289 217.919 638.28 217.28C638.242 216.635 638.402 215.994 638.738 215.442C639.074 214.89 639.57 214.453 640.16 214.19C640.738 213.905 641.385 213.792 642.025 213.865C642.665 213.938 643.271 214.193 643.77 214.6C646.65 216.6 649.49 218.68 652.46 220.55C660.21 225.44 666.93 231.55 673.55 237.85C676.1 240.26 678.55 242.76 680.98 245.3C681.461 245.895 681.848 246.559 682.13 247.27V247.27Z" stroke="white" stroke-width="0.01" stroke-miterlimit="10"/>
<path d="M584.31 214.88C584.31 216.79 584.31 218.71 584.31 220.63C584.301 221.589 584.19 222.544 583.98 223.48C583.35 226.01 581.48 227.24 578.98 226.63C577.117 226.187 575.304 225.553 573.57 224.74C562.83 219.63 552.13 214.41 541.39 209.3C538.3 207.83 535.1 206.56 531.91 205.3C530.49 204.74 529.27 204.13 529 202.47C528.73 200.81 529.55 199.64 530.91 198.67C537.217 194.17 543.497 189.633 549.75 185.06C554.06 181.9 558.3 178.62 562.59 175.43C565.77 173.08 569.17 171.99 573.14 173.43C575.511 174.135 577.736 175.259 579.71 176.75C580.182 177.119 580.573 177.581 580.859 178.107C581.144 178.634 581.318 179.213 581.37 179.81C581.97 185.81 582.68 191.88 583.23 197.92C583.75 203.57 584.11 209.23 584.54 214.92L584.31 214.88Z" stroke="white" stroke-width="0.01" stroke-miterlimit="10"/>
<path d="M525.11 314.34C525.411 313.379 525.885 312.48 526.51 311.69C534.93 303.93 539.31 293.9 542.65 283.28C543.65 280.09 544.47 276.84 545.4 273.63C545.565 272.801 545.943 272.029 546.497 271.391C547.051 270.752 547.762 270.269 548.56 269.99C550.44 269.4 552.26 269.47 553.56 271.22C555.56 273.99 557.56 276.81 559.49 279.62C560 280.34 560.38 281.14 560.91 281.84C565.75 288.403 569.877 295.462 573.22 302.9C573.43 303.34 573.66 303.76 573.83 304.21C575.12 307.5 574.32 308.79 571.05 310.21C558.42 315.83 547.15 323.21 540.3 335.75C539 338.13 538.04 340.68 536.92 343.15C536.73 343.676 536.503 344.187 536.24 344.68C535.911 345.282 535.4 345.764 534.78 346.058C534.161 346.353 533.465 346.444 532.79 346.32C532.105 346.245 531.464 345.947 530.965 345.472C530.467 344.997 530.138 344.37 530.03 343.69C529.55 341.18 529.19 338.69 528.76 336.13C527.67 329.67 526.55 323.22 525.45 316.77C525.32 316.17 525.27 315.52 525.11 314.34Z" stroke="white" stroke-width="0.01" stroke-miterlimit="10"/>
<path d="M167.79 245.74C168.804 245.841 169.808 246.028 170.79 246.3C171.307 246.466 171.774 246.76 172.147 247.155C172.52 247.549 172.788 248.031 172.925 248.557C173.063 249.082 173.066 249.633 172.934 250.16C172.802 250.687 172.539 251.172 172.17 251.57C171.111 252.873 169.819 253.968 168.36 254.8C161.22 258.17 154.95 262.88 148.6 267.41C139.6 273.87 130.81 280.72 121.94 287.41C119.76 289.05 117.59 290.67 115.38 292.25C114.461 292.97 113.34 293.384 112.173 293.433C111.007 293.481 109.855 293.162 108.88 292.52C103.607 289.5 98.32 286.5 93.02 283.52C91.6306 282.737 90.1983 282.033 88.73 281.41C86.25 280.41 85.47 277.94 87.08 275.79C87.6456 275.12 88.298 274.528 89.02 274.03C97.2448 267.927 106.252 262.956 115.8 259.25C126.41 255.01 137.12 250.98 148.3 248.55C154.68 247.16 161.22 246.55 167.68 245.55L167.79 245.74Z" stroke="white" stroke-width="0.01" stroke-miterlimit="10"/>
<path d="M541 237.34C540.74 238.91 540.43 241.34 539.92 243.79C538.687 249.655 537.945 255.612 537.7 261.6C537.254 267.971 536.308 274.297 534.87 280.52C534.13 284.19 533.08 287.8 531.99 291.39C531.459 292.895 530.757 294.334 529.9 295.68C527.83 299.21 523.67 299.53 521.19 296.32C520.101 294.944 519.169 293.452 518.41 291.87C513.557 281.35 508.757 270.807 504.01 260.24C502.38 256.6 501.01 252.85 499.52 249.13C498.58 246.75 499.11 244.65 501.27 243.28C503.206 242.016 505.259 240.942 507.4 240.07C516.9 236.42 526.82 234.25 536.77 232.28C539.58 231.72 541.16 233.35 541 237.34Z" stroke="white" stroke-width="0.01" stroke-miterlimit="10"/>
<path d="M82.72 319.12C73.25 318.72 66.02 323.2 60.03 329.97C57.9775 332.43 56.2096 335.113 54.76 337.97C51.4079 344.148 47.5656 350.047 43.27 355.61C42.8248 356.285 42.1496 356.776 41.3698 356.991C40.59 357.207 39.7586 357.132 39.03 356.78C38.2835 356.454 37.6785 355.871 37.3245 355.137C36.9705 354.404 36.8909 353.567 37.1 352.78C40.1 341.53 43.03 330.23 48.34 319.78C50.34 315.72 52.34 311.57 54.67 307.71C59.7739 299.657 66.2562 292.565 73.82 286.76C75.71 285.26 77.76 285.32 79.82 286.47C86.47 290.12 93.15 293.71 99.82 297.33C100.94 297.93 102.11 298.46 103.19 299.14C105.19 300.4 105.65 302.45 104.19 304.27C100.257 309.319 95.6661 313.818 90.54 317.65C88.85 318.93 86.33 319.31 82.72 319.12Z" stroke="white" stroke-width="0.01" stroke-miterlimit="10"/>
<path d="M529.96 166.85C535.8 166.98 541.64 167 547.35 168.44C547.819 168.531 548.283 168.648 548.74 168.79C549.258 168.955 549.73 169.239 550.118 169.619C550.507 169.999 550.801 170.465 550.977 170.979C551.153 171.494 551.206 172.042 551.132 172.58C551.057 173.119 550.858 173.632 550.55 174.08C549.78 175.287 548.797 176.344 547.65 177.2C537.59 184.3 527.34 191.09 516.73 197.34C514.905 198.365 512.751 198.635 510.73 198.09C501.343 196.162 492.106 193.565 483.09 190.32C479.94 189.2 476.64 188.5 473.41 187.6C471.08 186.94 470.01 185.36 470.35 183.18C470.478 182.64 470.716 182.131 471.048 181.686C471.38 181.241 471.799 180.868 472.28 180.59C477.9 176.27 484.4 173.82 491.11 171.93C499.654 169.543 508.426 168.065 517.28 167.52C521.52 167.21 525.73 167.06 529.96 166.85Z" stroke="white" stroke-width="0.01" stroke-miterlimit="10"/>
<path d="M421.52 312.65C418.72 312.65 417.32 311.03 417.52 308.83C417.92 304.55 418.4 300.27 418.76 295.98C418.93 294.072 418.98 292.155 418.91 290.24C418.66 284.97 418.61 279.67 417.91 274.46C417.3 269.92 418.21 265.76 419.5 261.55C421.206 255.718 423.66 250.132 426.8 244.93C427.203 244.24 427.705 243.613 428.29 243.07C428.658 242.698 429.109 242.419 429.606 242.256C430.102 242.093 430.631 242.05 431.147 242.131C431.664 242.212 432.154 242.415 432.577 242.722C433 243.03 433.344 243.433 433.58 243.9C435.29 246.59 437.13 249.21 438.73 251.97C441.36 256.53 443.93 261.13 446.35 265.81C448.15 269.27 449.68 272.88 451.35 276.43C451.59 276.94 451.78 277.43 451.99 277.98C452.5 279.149 452.694 280.431 452.552 281.698C452.409 282.966 451.936 284.173 451.18 285.2C448.785 288.981 446.003 292.504 442.88 295.71C437.286 301.309 431.224 306.421 424.76 310.99C423.734 311.643 422.649 312.199 421.52 312.65V312.65Z" stroke="white" stroke-width="0.01" stroke-miterlimit="10"/>
<path d="M477.09 268.78C478.61 268.78 480.14 268.66 481.64 268.78C482.354 268.865 483.078 268.778 483.751 268.526C484.425 268.273 485.028 267.863 485.51 267.33C486.87 265.97 488.2 264.59 489.51 263.22C491.16 261.51 493.01 261.37 494.76 262.96C495.474 263.605 496.069 264.37 496.52 265.22C499.03 270.06 501.16 275.03 501.86 280.52C502.098 281.852 501.895 283.225 501.28 284.43C498.831 289.091 495.895 293.479 492.52 297.52C489.24 301.43 485.7 305.13 482.27 308.93C479.87 311.59 477.41 314.22 475.07 316.93C472.73 319.64 470.61 319.51 468.47 316.64C464.8 311.71 461.03 306.85 457.3 301.96C457.01 301.58 456.7 301.21 456.41 300.83C454.54 298.39 454.79 297 457.15 294.95C458.66 293.64 459.94 292.09 461.37 290.7C462.542 289.497 463.784 288.365 465.09 287.31C465.596 286.983 465.965 286.482 466.128 285.903C466.292 285.323 466.239 284.704 465.98 284.16C464.83 280.94 463.74 277.69 462.5 274.5C461.5 271.9 462.84 269.5 465.62 269.35C469.44 269.1 473.27 268.88 477.09 268.65V268.78Z" stroke="white" stroke-width="0.01" stroke-miterlimit="10"/>
<path d="M84.1 333.61C83.82 334.47 83.41 335.92 82.87 337.33C80.79 342.8 79.67 348.38 81.18 354.2C81.4514 355.348 81.9037 356.445 82.52 357.45C84.52 360.6 86.77 363.64 88.86 366.77C90.7666 369.345 92.1959 372.241 93.08 375.32C93.2644 375.948 93.274 376.615 93.1079 377.248C92.9418 377.881 92.6062 378.457 92.1372 378.913C91.6682 379.37 91.0836 379.69 90.4462 379.839C89.8089 379.988 89.1429 379.961 88.52 379.76C87.9949 379.57 87.5074 379.289 87.08 378.93C84.9619 377.213 82.4188 376.1 79.72 375.71C66.23 373.46 53.31 375.43 40.82 380.8C39.73 381.27 38.69 381.88 37.58 382.3C36.9141 382.61 36.1666 382.698 35.4469 382.552C34.7272 382.407 34.073 382.034 33.58 381.49C33.0575 380.927 32.7117 380.224 32.5854 379.467C32.4592 378.709 32.5582 377.932 32.87 377.23C33.2085 376.422 33.6633 375.667 34.22 374.99C38.3389 369.682 42.8552 364.694 47.73 360.07C51.537 356.414 54.9124 352.334 57.79 347.91C62.25 340.96 67.67 334.91 74.93 330.78C75.93 330.19 77.1 329.78 78.12 329.14C80.99 327.37 83.89 329.07 84.1 333.61Z" stroke="white" stroke-width="0.01" stroke-miterlimit="10"/>
<path d="M556.52 228.61C559.167 229.288 561.772 230.123 564.32 231.11C572.08 234.54 579.337 239.011 585.89 244.4C586.761 245.096 587.68 245.731 588.64 246.3C589.361 246.654 589.941 247.243 590.284 247.97C590.628 248.696 590.714 249.518 590.53 250.3C590.21 251.95 589.9 253.6 589.45 255.21C587.537 262.137 585.597 269.057 583.63 275.97C583.097 278.405 581.847 280.623 580.04 282.34C578.58 283.61 577.04 283.92 575.45 282.83C574.28 282.029 573.197 281.108 572.22 280.08C570.63 278.41 569.22 276.5 567.63 274.89C561.99 269.337 556.3 263.837 550.56 258.39C550.053 257.942 549.659 257.38 549.409 256.752C549.159 256.123 549.06 255.444 549.12 254.77C549.5 248.95 549.893 243.133 550.3 237.32C550.42 235.72 550.58 234.13 550.78 232.55C551.15 229.62 552.45 228.52 556.52 228.61Z" stroke="white" stroke-width="0.01" stroke-miterlimit="10"/>
<path d="M288.59 476.39C288.481 467.121 289.539 457.875 291.74 448.87C293.26 442.75 294.56 436.58 296.28 430.52C297.399 427.198 298.708 423.942 300.2 420.77C300.427 420.348 300.684 419.944 300.97 419.56C302.83 416.56 305.82 416.05 308.54 419.56C309.588 420.969 310.521 422.461 311.33 424.02C315.398 431.193 318.109 439.054 319.33 447.21C319.542 448.953 319.257 450.721 318.51 452.31C317.392 454.88 315.778 457.205 313.76 459.15C308.76 464.15 308.76 464.15 307.76 471.04C307.24 474.43 306.64 477.82 305.87 481.16C305.375 482.835 304.76 484.473 304.03 486.06C303.15 488.34 301.2 489.01 299.03 489.13C295.978 489.188 292.97 488.399 290.34 486.85C289.777 486.529 289.315 486.056 289.009 485.484C288.703 484.913 288.565 484.267 288.61 483.62C288.58 481.19 288.59 478.79 288.59 476.39Z" stroke="white" stroke-width="0.01" stroke-miterlimit="10"/>
<path d="M173.31 327.89C173.473 321.26 174.182 314.654 175.43 308.14C175.567 307.353 175.859 306.602 176.29 305.93C176.721 305.243 177.397 304.747 178.182 304.543C178.966 304.338 179.799 304.441 180.51 304.83C181.222 305.186 181.892 305.618 182.51 306.12C188.087 310.42 193.076 315.433 197.35 321.03C200.75 325.67 204.22 330.27 207.55 334.95C208.746 336.743 209.837 338.602 210.82 340.52C212.82 344.22 211.18 346.81 208.59 348.86C202.22 353.86 194.91 357.01 187.19 359.27C185.82 359.67 184.41 360 183.01 360.27C180.8 360.7 179.38 360.13 178.63 357.96C177.249 354.395 176.188 350.714 175.46 346.96C174.39 339.84 173.83 332.67 173.31 327.89Z" stroke="white" stroke-width="0.01" stroke-miterlimit="10"/>
<path d="M474.02 195.85C474.78 196.02 475.87 196.25 476.95 196.52C495.58 201.16 513.66 207.52 531.54 214.42C533.76 215.28 535.94 216.29 538.1 217.29C538.694 217.53 539.199 217.946 539.548 218.483C539.897 219.019 540.072 219.65 540.05 220.29C540.095 220.98 539.901 221.664 539.5 222.227C539.1 222.79 538.517 223.197 537.85 223.38C535.18 224.21 532.5 224.98 529.78 225.6C520.59 227.67 511.34 229.48 502.2 231.76C500.435 232.279 498.558 232.271 496.798 231.738C495.037 231.205 493.471 230.17 492.29 228.76C489.61 225.91 487.21 222.81 484.66 219.84C479.829 214.322 475.308 208.54 471.12 202.52C470.361 201.587 469.963 200.412 470 199.21C470.19 197.19 471.65 195.85 474.02 195.85Z" stroke="white" stroke-width="0.01" stroke-miterlimit="10"/>
<path d="M367.52 394.01C367.1 395.73 366.76 397.27 366.33 398.78C365.33 402.34 363.77 403.1 360.33 401.78L352.93 398.97C352.747 398.949 352.563 398.949 352.38 398.97C351.75 399.72 350.98 400.61 350.24 401.53C348.84 403.27 347.49 405.06 346.04 406.76C344.09 409.05 341.39 408.76 340.04 406.08C339.409 404.689 338.858 403.264 338.39 401.81C337.45 401.88 336.44 401.95 335.44 402.05C334.44 402.15 333.21 402.39 332.1 402.41C331.537 402.473 330.967 402.389 330.447 402.165C329.927 401.942 329.473 401.586 329.132 401.134C328.791 400.682 328.574 400.148 328.501 399.587C328.429 399.025 328.504 398.454 328.72 397.93C328.981 397.008 329.376 396.129 329.89 395.32C330.533 394.505 330.919 393.518 330.999 392.483C331.079 391.449 330.85 390.414 330.34 389.51C330.132 389.078 329.981 388.621 329.89 388.15C329.32 385.73 330.39 384.07 332.84 383.62C333.84 383.44 334.9 383.32 335.93 383.2C336.96 383.08 337.81 383.02 339.08 382.9C338.95 381.12 338.85 379.47 338.7 377.83C338.26 373.03 339.76 371.48 344.43 372.54C349.596 373.655 354.909 373.922 360.16 373.33C362.601 372.959 365.009 372.394 367.36 371.64C368.272 371.359 369.167 371.025 370.04 370.64C373.29 369.34 375.74 370.91 375.97 374.46C376.07 375.734 376.1 377.013 376.06 378.29C376.001 379.577 376.409 380.841 377.21 381.85C378.12 383.06 378.94 384.34 379.77 385.61C381.16 387.73 381.45 389.89 379.96 392.1C379.6 392.63 379.35 393.22 379.01 393.76C378.446 394.739 377.564 395.494 376.51 395.9C375.456 396.306 374.295 396.338 373.22 395.99C372.3 395.72 371.4 395.37 370.5 395.06L367.52 394.01Z" stroke="white" stroke-width="0.01" stroke-miterlimit="10"/>
<path d="M521.83 340.88C521.841 341.484 521.68 342.079 521.367 342.596C521.054 343.113 520.601 343.53 520.06 343.8C518.54 344.67 517.24 344.12 515.85 343.25C510.57 339.93 505.23 336.73 499.04 335.31C496.621 334.712 494.075 334.886 491.76 335.81C488.13 337.26 484.46 338.65 480.92 340.32C479.535 340.95 477.957 341.005 476.532 340.473C475.107 339.94 473.952 338.864 473.32 337.48C472.898 336.571 472.741 335.562 472.867 334.568C472.992 333.574 473.395 332.635 474.03 331.86C475.141 330.305 476.39 328.852 477.76 327.52C479.012 326.27 480.349 325.107 481.76 324.04C486.26 320.442 490.182 316.176 493.39 311.39C495.64 308.19 497.98 305.05 500.25 301.86C500.868 301.033 501.394 300.141 501.82 299.2C503.19 295.92 507.01 296.06 508.82 298.66C513.076 304.777 515.868 311.791 516.98 319.16C517.383 321.188 517.901 323.191 518.53 325.16C520.193 330.266 521.299 335.536 521.83 340.88Z" stroke="white" stroke-width="0.01" stroke-miterlimit="10"/>
<path d="M423.08 337.41C424.54 337.76 426.49 338.2 428.41 338.7C435.168 340.621 441.801 342.959 448.27 345.7C451.27 346.91 454.39 348.01 457.46 349.15C461.03 350.47 461.7 353.24 458.8 355.61C452.92 360.4 446.94 365.07 440.92 369.68C437.81 372.06 434.55 374.24 431.31 376.43C430.123 377.233 428.853 377.904 427.52 378.43C426.719 378.835 425.796 378.928 424.931 378.689C424.066 378.451 423.32 377.898 422.84 377.14C419.97 373.41 417.19 369.61 414.31 365.88C413.847 365.283 413.525 364.588 413.37 363.848C413.214 363.109 413.228 362.343 413.41 361.61C414.26 357.22 415.02 352.82 415.85 348.43C416.25 346.32 416.69 344.22 417.15 342.12C417.82 339.02 419.73 337.36 423.08 337.41Z" stroke="white" stroke-width="0.01" stroke-miterlimit="10"/>
<path d="M620.04 302.05C620.04 305.05 618.19 306.64 615.61 306.15C612.56 305.57 609.56 304.64 606.48 304.21C600.291 303.318 593.985 303.703 587.95 305.34C587.302 305.536 586.616 305.568 585.953 305.434C585.29 305.3 584.67 305.003 584.15 304.57C581.56 302.63 580.03 299.9 578.6 297.15C578.334 296.691 578.188 296.173 578.175 295.643C578.163 295.113 578.283 294.589 578.526 294.118C578.769 293.646 579.127 293.244 579.566 292.947C580.005 292.651 580.512 292.469 581.04 292.42C585.04 292.16 586.79 289.42 587.9 286.32C589.45 281.97 590.66 277.49 591.9 273.03C593.14 268.57 594.21 264.03 595.38 259.58C595.497 258.903 595.817 258.278 596.297 257.786C596.778 257.295 597.396 256.962 598.07 256.83C598.781 256.668 599.526 256.745 600.19 257.048C600.853 257.352 601.398 257.866 601.74 258.51C606.74 266.57 611.98 274.51 615.6 283.4C618.09 289.52 619.13 295.97 620.04 302.05Z" stroke="white" stroke-width="0.01" stroke-miterlimit="10"/>
<path d="M398.86 461.31C399.05 466.9 396.65 470.94 393.31 474.56C390.49 477.56 387.42 480.45 385.81 484.41C384.94 486.55 384.06 488.68 383.24 490.84C382.42 493 381.4 493.75 379.61 493.64C377.82 493.53 376.81 492.53 376.41 490.36C376.07 488.48 376.04 486.53 375.55 484.69C374.383 480.297 373.11 475.933 371.73 471.6C370.276 467.204 369.362 462.647 369.01 458.03C368.8 454.97 369.48 452.36 371.87 450.28C373.87 448.51 375.77 446.46 377.96 444.89C380.217 443.115 382.085 440.896 383.45 438.37C384.336 436.777 385.374 435.273 386.55 433.88C389.12 431.11 393.69 430.88 395.49 436.14C395.669 436.669 395.793 437.215 395.86 437.77C396.873 445.29 397.873 452.807 398.86 460.32C398.891 460.649 398.891 460.981 398.86 461.31V461.31Z" stroke="white" stroke-width="0.01" stroke-miterlimit="10"/>
<path d="M407.44 453.07C407.44 451.4 407.51 449.72 407.44 448.07C407.421 444.792 406.486 441.585 404.74 438.81C402.95 436.12 402.81 432.81 402.74 429.57C402.67 426.33 402.67 423.02 402.74 419.74C402.9 412.91 401.52 406.25 400.67 399.52C400.67 399.21 400.5 398.9 400.47 398.59C400.405 397.827 400.595 397.064 401.009 396.42C401.423 395.776 402.039 395.288 402.76 395.03C403.473 394.737 404.266 394.708 404.999 394.946C405.731 395.184 406.355 395.674 406.76 396.33C407.45 397.4 407.97 398.58 408.59 399.7C411.19 404.37 413.86 409.01 416.39 413.7C421.07 422.4 426.02 430.99 429.44 440.31C430.062 442.267 430.511 444.274 430.78 446.31C430.876 446.945 430.813 447.594 430.599 448.199C430.384 448.804 430.024 449.347 429.55 449.78C425.328 454.27 420.449 458.094 415.08 461.12C414.099 461.65 413.044 462.027 411.95 462.24C408.95 462.81 407.18 461.11 407.35 458.08C407.45 456.41 407.51 454.73 407.59 453.08L407.44 453.07Z" stroke="white" stroke-width="0.01" stroke-miterlimit="10"/>
<path d="M405.29 335.89C406.05 336.82 406.76 337.68 407.46 338.55C409.12 340.61 409.15 342.04 407.46 344.09C406.14 345.68 404.7 347.17 403.24 348.78C404.31 350.12 405.33 351.34 406.3 352.6C407.8 354.55 407.71 356.19 405.93 357.9C404.84 358.9 403.63 359.9 402.33 360.96L403.7 363.18C405.08 365.4 405.01 366.68 403.12 368.48C402.041 369.428 400.899 370.3 399.7 371.09C397.94 372.37 397.48 374.3 398.86 375.96C400.24 377.62 400.4 379.33 399.06 381.15C398.784 381.715 398.596 382.319 398.5 382.94C398.287 383.764 397.765 384.474 397.043 384.924C396.321 385.375 395.454 385.531 394.62 385.36C392.334 385.011 390.068 384.544 387.83 383.96C386.844 383.664 385.999 383.021 385.45 382.15C384.559 380.553 383.915 378.83 383.54 377.04C382.9 373.75 382.54 370.43 380.8 367.44C380.328 366.676 380.107 365.783 380.166 364.887C380.225 363.991 380.562 363.136 381.13 362.44C385.71 356.25 386.47 349.07 386.56 341.72C386.56 341 386.56 340.28 386.49 339.56C386.435 338.84 386.559 338.117 386.85 337.456C387.141 336.795 387.591 336.216 388.16 335.77C392.77 331.93 397.35 328.06 401.99 324.26C403.83 322.75 405.99 323.19 407.36 325.17L407.48 325.38C410.61 330.3 410.37 331.7 405.75 335.27C405.578 335.462 405.424 335.67 405.29 335.89V335.89Z" stroke="white" stroke-width="0.01" stroke-miterlimit="10"/>
<path d="M392.66 401.46C392.9 403.6 393.143 405.74 393.39 407.88C393.76 411.14 394.14 414.39 394.5 417.64C394.522 417.973 394.522 418.307 394.5 418.64C394.56 422.13 392.12 424.14 388.75 423.39C383.54 422.22 384.75 422.24 382.02 425.92C378.9 430.17 375.86 434.48 372.63 438.65C371.556 440.03 370.22 441.185 368.7 442.05C365.58 443.77 363.2 442.5 362.63 438.99C362.18 436.23 361.88 433.45 361.51 430.68C360.843 425.767 360.197 420.86 359.57 415.96C359.449 415.352 359.467 414.724 359.623 414.123C359.779 413.523 360.069 412.965 360.471 412.493C360.873 412.021 361.377 411.645 361.945 411.396C362.513 411.146 363.13 411.027 363.75 411.05C365.81 410.94 367.88 410.74 369.93 410.43C370.691 410.271 371.402 409.927 372 409.43C376.13 406.17 380.23 402.86 384.33 399.56C385.2 398.86 386.05 398.14 386.89 397.42C387.409 396.913 388.07 396.577 388.785 396.458C389.5 396.338 390.235 396.44 390.89 396.75C391.551 397.055 392.091 397.572 392.426 398.218C392.761 398.865 392.872 399.604 392.74 400.32C392.74 400.72 392.74 401.12 392.74 401.52L392.66 401.46Z" stroke="white" stroke-width="0.01" stroke-miterlimit="10"/>
<path d="M315.52 385.87C314.38 386.07 313.61 386.23 312.83 386.33C309.34 386.77 307.53 385.13 307.62 381.64C307.62 380.14 307.62 378.64 307.62 376.9L304.31 377.52C303.171 377.771 301.979 377.57 300.986 376.958C299.993 376.345 299.277 375.371 298.99 374.24C298.25 371.39 297.65 368.5 296.93 365.35C295.87 365.28 294.78 365.23 293.7 365.14C291.06 364.93 290 363.96 289.63 361.34C289.56 360.625 289.56 359.905 289.63 359.19C289.77 357.12 290.04 355.05 290.07 352.98C290.07 350.3 291.7 348.74 293.78 347.54C294.491 347.143 295.317 347.002 296.119 347.14C296.922 347.279 297.653 347.688 298.19 348.3C302.57 353.67 308.7 356.56 314.45 359.96C318.14 362.14 322.17 363.74 325.99 365.71C327.259 366.372 328.42 367.226 329.43 368.24C332.61 371.5 331.76 375.98 327.67 378.02C326.501 378.557 325.511 379.418 324.818 380.501C324.125 381.584 323.758 382.844 323.76 384.13C323.689 385.791 323.413 387.436 322.94 389.03C322.578 389.997 321.924 390.829 321.07 391.41C320.614 391.739 320.08 391.945 319.521 392.008C318.961 392.07 318.395 391.987 317.878 391.767C317.36 391.547 316.907 391.197 316.564 390.75C316.222 390.304 316 389.777 315.92 389.22C315.68 388.21 315.63 387.18 315.52 385.87Z" stroke="white" stroke-width="0.01" stroke-miterlimit="10"/>
<path d="M292 374.94C291.26 377.37 290.69 379.86 289.76 382.21C288.41 385.63 286.83 388.95 285.3 392.29C284.3 394.55 282.88 395.36 280.52 394.7C274.7 393.08 269.2 390.79 265.07 386.12C264.448 385.401 263.957 384.579 263.62 383.69C261.08 377.31 258.57 370.92 256.09 364.52C255.09 361.83 256.09 359.96 258.83 359.34C261.16 358.82 263.46 358.15 265.83 357.6C268.2 357.05 270.64 356.43 273.07 356C275.91 355.49 277.25 356.15 278.51 358.72C279.87 361.51 281.13 364.36 282.31 367.24C282.531 368.005 282.987 368.681 283.614 369.172C284.24 369.664 285.005 369.946 285.8 369.98C286.596 370.057 287.385 370.195 288.16 370.39C290.93 371 291.75 372.03 292 374.94Z" stroke="white" stroke-width="0.01" stroke-miterlimit="10"/>
<path d="M164.6 306.86C163.81 306.635 163.055 306.298 162.36 305.86C160.521 304.458 158.799 302.91 157.21 301.23C154.5 298.309 151.539 295.632 148.36 293.23C146.47 291.648 144.742 289.883 143.2 287.96C142.604 287.343 142.259 286.525 142.233 285.667C142.207 284.809 142.502 283.972 143.06 283.32C144.852 280.89 146.768 278.554 148.8 276.32C153.72 271.262 159.353 266.949 165.52 263.52C167.157 262.53 168.846 261.629 170.58 260.82C171.235 260.479 171.986 260.369 172.712 260.507C173.437 260.645 174.095 261.023 174.58 261.58C175.05 262.083 175.354 262.718 175.453 263.399C175.551 264.08 175.438 264.775 175.13 265.39C173.691 269.028 172.785 272.854 172.44 276.75C171.77 281.97 171.5 287.24 170.83 292.46C170.32 296.46 169.53 300.33 168.71 304.23C168.32 306.11 167.04 306.9 164.6 306.86Z" stroke="white" stroke-width="0.01" stroke-miterlimit="10"/>
<path d="M464.23 333.27C464.09 337.88 461.66 339.8 457.59 339.34C452.3 338.74 447.41 336.64 442.31 335.34C440.61 334.91 438.99 334.18 437.31 333.77C432.86 332.71 429.18 330.1 425.31 327.9C422.95 326.57 422.89 323.77 425.12 322.14C427.58 320.36 430.12 318.75 432.72 317.14C436.56 314.68 440.41 312.247 444.27 309.84C445.406 309.096 446.604 308.45 447.85 307.91C448.576 307.535 449.416 307.448 450.204 307.664C450.991 307.881 451.668 308.387 452.1 309.08C455.47 314.5 459.1 319.79 461.64 325.68C462.46 327.59 463.17 329.55 463.86 331.5C464.028 332.08 464.152 332.671 464.23 333.27V333.27Z" stroke="white" stroke-width="0.01" stroke-miterlimit="10"/>
<path d="M314.06 398.83C315.56 398.6 316.71 399.43 317.8 400.43C321.99 404.25 326.28 407.98 330.35 411.92C332.007 413.541 334.123 414.613 336.41 414.99C337.98 415.27 339.57 415.46 341.16 415.59C341.996 415.706 342.847 415.649 343.66 415.424C344.474 415.199 345.233 414.809 345.89 414.28C346.146 414.092 346.417 413.925 346.7 413.78C349.57 412.13 351.19 412.42 352.54 414.84C354.1 417.61 353.46 420.5 350.96 421.9C349.64 422.64 348.29 423.33 346.96 424.07C343.18 426.023 339.892 428.806 337.34 432.21C336.484 433.382 335.541 434.488 334.52 435.52C332.64 437.52 329.31 437.39 328.14 435.01C324.2 427.01 317.68 420.92 312.56 413.81C311.451 412.247 310.423 410.628 309.48 408.96C308.24 406.74 308.96 401.83 310.66 399.96C311.089 399.505 311.624 399.164 312.218 398.967C312.811 398.769 313.444 398.722 314.06 398.83Z" stroke="white" stroke-width="0.01" stroke-miterlimit="10"/>
<path d="M281.61 418.78C282.037 416.659 282.578 414.563 283.23 412.5C284.94 407.88 286.78 403.29 288.67 398.74C290.05 395.43 291.55 392.17 293.08 388.92C293.296 388.422 293.631 387.985 294.055 387.648C294.48 387.31 294.98 387.081 295.514 386.983C296.047 386.884 296.597 386.918 297.114 387.081C297.631 387.245 298.1 387.533 298.48 387.92C299.979 389.356 301.405 390.868 302.75 392.45C303.228 392.986 303.545 393.645 303.665 394.352C303.785 395.06 303.704 395.787 303.43 396.45C300.43 405.45 296.3 413.86 292.07 422.27C291.704 422.99 291.251 423.662 290.72 424.27C290.23 424.843 289.607 425.288 288.905 425.565C288.203 425.842 287.444 425.943 286.695 425.859C285.945 425.776 285.227 425.509 284.604 425.084C283.981 424.659 283.471 424.088 283.12 423.42C282.502 421.913 281.998 420.362 281.61 418.78V418.78Z" stroke="white" stroke-width="0.01" stroke-miterlimit="10"/>
<path d="M425.28 398.08C424.92 400.15 424.28 401.76 422.71 402.8C421.957 403.277 421.047 403.44 420.175 403.253C419.304 403.066 418.541 402.544 418.05 401.8C417.19 400.56 416.491 399.216 415.97 397.8C414.11 392.53 410.82 388.08 407.97 383.37C407.631 382.927 407.241 382.524 406.81 382.17C405.01 380.29 405.33 377.62 407.59 375.66C408.004 375.316 408.482 375.057 408.996 374.899C409.511 374.74 410.051 374.686 410.587 374.738C411.123 374.79 411.643 374.948 412.117 375.202C412.591 375.457 413.01 375.803 413.35 376.22C416.018 379.303 418.307 382.694 420.17 386.32C421.46 388.88 422.85 391.4 424.04 394.02C424.552 395.341 424.967 396.698 425.28 398.08Z" stroke="white" stroke-width="0.01" stroke-miterlimit="10"/>
<path d="M327.72 344.46C327.72 341.21 329.72 339.98 331.81 340.31C333.04 340.51 333.66 341.43 334.34 342.31C334.863 343.019 335.213 343.84 335.363 344.708C335.512 345.576 335.456 346.467 335.2 347.31C335.004 348.095 334.543 348.788 333.894 349.271C333.245 349.755 332.448 349.998 331.64 349.96C330.873 350.026 330.109 349.806 329.494 349.343C328.879 348.88 328.458 348.205 328.31 347.45C328.03 346.52 327.91 345.52 327.72 344.46Z" fill="black" stroke="white" stroke-width="0.01" stroke-miterlimit="10"/>
<path d="M368.96 339.13C368.774 340.131 368.514 341.118 368.18 342.08C367.906 342.632 367.48 343.094 366.951 343.412C366.423 343.729 365.815 343.889 365.199 343.872C364.583 343.855 363.984 343.663 363.474 343.317C362.964 342.971 362.564 342.486 362.32 341.92C361.662 340.457 361.446 338.834 361.7 337.25C361.764 336.537 362.052 335.863 362.523 335.325C362.994 334.786 363.623 334.41 364.32 334.25C365.071 334.119 365.844 334.232 366.526 334.572C367.207 334.912 367.763 335.462 368.11 336.14C368.482 337.109 368.767 338.11 368.96 339.13Z" fill="black" stroke="white" stroke-width="0.01" stroke-miterlimit="10"/>
</svg>
